<svg width="1564" height="702" viewBox="0 0 1564 702" fill="none" xmlns="http://www.w3.org/2000/svg">
<rect width="1564" height="702" fill="#1A3763"/>
<path d="M1064.06 401.269V419.83H1102.05V433.745H1064.09V450.635H1106.5V465.198H1045.45V386.809H1104.45V401.281H1064.08L1064.06 401.269Z" fill="#FFFEFE"/>
<path d="M846.097 465.175H845.034C839.263 465.175 833.491 465.164 827.72 465.186C826.907 465.186 826.526 465.005 826.238 464.278C824.086 458.859 821.87 453.464 819.705 448.057C819.456 447.432 819.128 447.205 818.367 447.205C807.848 447.228 797.341 447.228 786.821 447.205C786.008 447.205 785.693 447.432 785.417 448.102C783.214 453.464 780.944 458.814 778.701 464.175C778.57 464.482 778.439 464.777 778.282 465.13H760.023C760.98 462.96 761.925 460.847 762.869 458.734C773.455 435.051 784.053 411.356 794.612 387.661C794.94 386.934 795.334 386.707 796.2 386.718C800.843 386.764 805.486 386.752 810.13 386.718C810.825 386.718 811.166 386.877 811.442 387.491C822.867 413.105 834.331 438.72 845.769 464.334C845.874 464.573 845.953 464.823 846.084 465.175H846.097ZM802.692 406.744C802.614 406.744 802.548 406.722 802.47 406.722C798.718 415.786 794.967 424.862 791.202 433.983H813.829C810.104 424.862 806.392 415.797 802.692 406.744Z" fill="#FFFEFE"/>
<path d="M700.825 386.809C701.088 386.787 701.324 386.753 701.547 386.753C713.72 386.775 725.892 386.662 738.065 386.866C745.594 386.991 752.546 388.945 758.409 393.273C762.987 396.646 765.545 400.986 766.437 406.074C767.263 410.8 767.04 415.48 765.125 420C762.528 426.146 757.307 430.042 750.474 432.461C746.001 434.04 741.305 434.71 736.491 434.744C730.693 434.79 724.882 434.767 719.071 434.767C718.77 434.767 718.481 434.767 718.074 434.767V465.209H700.825V386.821V386.809ZM718.061 421.057C718.284 421.08 718.415 421.102 718.547 421.102C724.279 421.102 730.024 421.159 735.756 421.045C737.684 421.011 739.652 420.671 741.515 420.216C745.056 419.364 747.627 417.524 748.519 414.276C749.136 412.026 749.149 409.789 748.519 407.54C747.85 405.154 746.224 403.45 743.666 402.394C741.58 401.519 739.363 400.997 737.068 400.951C730.903 400.849 724.738 400.849 718.573 400.815C718.415 400.815 718.258 400.872 718.074 400.906V421.045L718.061 421.057Z" fill="#FFFEFE"/>
<path d="M885.435 465.198H868.147C868.147 464.823 868.147 464.471 868.147 464.13C868.147 453.759 868.147 443.388 868.12 433.029C868.12 432.472 867.91 431.848 867.583 431.382C857.246 416.865 846.884 402.36 836.535 387.854C836.312 387.536 836.089 387.218 835.8 386.787C836.272 386.764 836.587 386.741 836.902 386.741C842.778 386.741 848.642 386.752 854.518 386.718C855.292 386.718 855.685 386.946 856.079 387.525C862.795 397.385 869.537 407.221 876.279 417.07C876.463 417.342 876.66 417.615 876.922 417.99C877.197 417.615 877.434 417.308 877.643 416.99C884.425 407.199 891.206 397.419 897.949 387.616C898.408 386.946 898.906 386.718 899.772 386.73C905.412 386.764 911.052 386.752 916.693 386.752H917.965C917.664 387.207 917.454 387.525 917.231 387.832C906.842 402.326 896.453 416.808 886.091 431.314C885.71 431.848 885.474 432.563 885.461 433.199C885.422 443.513 885.435 453.816 885.435 464.13V465.22V465.198Z" fill="#FFFEFE"/>
<path d="M1281.06 401.292H1253.09V465.198H1235.8V401.349H1207.93V386.809H1281.07V401.292H1281.06Z" fill="#FFFEFE"/>
<path d="M1009.39 386.809V386.718H1000.04L976.808 442.059L952.24 386.809H946.888H929.639V404.223V465.198H946.888V409.936L968.125 459.143H984.101L1005.39 412.924V465.198H1022.64V404.223V386.809H1009.39Z" fill="#FFFEFE"/>
<path d="M1180.24 386.809V442.707L1140.73 386.809H1124.9V465.198H1140.73V412.151L1180.24 465.198H1196.07V386.809H1180.24Z" fill="#FFFEFE"/>
<path d="M1253.51 320.802C1262.67 333.286 1271.8 345.724 1281.06 358.332H1279.72C1272.98 358.332 1266.25 358.321 1259.51 358.355C1258.67 358.355 1258.22 358.128 1257.78 357.492C1250.02 346.235 1242.23 334.99 1234.49 323.733C1234.01 323.029 1233.48 322.779 1232.58 322.79C1229.12 322.835 1225.65 322.813 1222.07 322.813V358.264H1202.05V267.608C1202.38 267.585 1202.64 267.54 1202.91 267.54C1216.99 267.563 1231.08 267.46 1245.17 267.665C1253.22 267.79 1260.83 269.641 1267.48 273.969C1274.03 278.229 1277.32 284.101 1278.08 291.189C1278.65 296.426 1278.15 301.56 1275.6 306.388C1272.17 312.93 1266.24 316.951 1258.79 319.348C1257.11 319.893 1255.36 320.28 1253.49 320.791L1253.51 320.802ZM1222.08 306.672C1222.57 306.694 1222.91 306.717 1223.25 306.717C1229.38 306.717 1235.49 306.74 1241.62 306.706C1243.31 306.706 1245 306.569 1246.68 306.365C1253.98 305.445 1257.85 301.333 1257.51 294.87C1257.3 290.735 1255.49 287.429 1250.97 285.873C1248.95 285.18 1246.74 284.647 1244.61 284.59C1237.3 284.397 1229.98 284.442 1222.66 284.397C1222.48 284.397 1222.31 284.465 1222.08 284.51V306.683V306.672Z" fill="#FFFEFE"/>
<path d="M880.621 358.298H860.683V321.302H817.489V358.264H797.498V267.631H817.423V304.275H860.631V267.619H880.634V358.298H880.621Z" fill="#FFFEFE"/>
<path d="M995.854 358.332C990.214 358.332 984.757 358.332 979.288 358.332C977.635 358.332 975.969 358.287 974.316 358.355C973.49 358.389 973.123 358.139 972.834 357.435C970.329 351.165 967.744 344.929 965.252 338.658C964.911 337.807 964.465 337.545 963.455 337.545C951.322 337.579 939.202 337.579 927.069 337.545C926.163 337.545 925.744 337.738 925.403 338.545C922.845 344.758 920.221 350.949 917.611 357.14C917.454 357.526 917.27 357.901 917.099 358.298H895.955C896.125 357.867 896.257 357.48 896.427 357.117C909.662 327.595 922.897 298.073 936.106 268.551C936.434 267.812 936.814 267.506 937.772 267.517C943.202 267.563 948.633 267.563 954.063 267.517C954.929 267.517 955.323 267.744 955.651 268.471C968.899 298.096 982.186 327.708 995.461 357.321C995.592 357.605 995.684 357.889 995.854 358.321V358.332ZM932.132 322.199H958.379C954.037 311.613 949.735 301.117 945.327 290.36C940.855 301.151 936.513 311.624 932.132 322.199Z" fill="#FFFEFE"/>
<path d="M730.955 284.397H700.825V267.619H781.272V284.329H751.038V358.264H730.968V284.397H730.955Z" fill="#FFFEFE"/>
<path d="M1008.12 267.597H1027.98V358.264H1008.12V267.597Z" fill="#FFFEFE"/>
<path d="M1185.47 356.946L1169.9 343.543C1171.83 341.532 1173.55 339.329 1175.05 336.921C1179.39 329.901 1181.57 321.949 1181.57 313.055C1181.57 304.161 1179.51 296.437 1175.37 289.52C1171.24 282.602 1165.25 277.206 1157.39 273.344C1149.52 269.482 1140.69 267.54 1130.89 267.54C1115.94 267.54 1103.73 271.652 1094.27 279.887C1084.81 288.122 1080.08 299.515 1080.08 314.066C1080.08 321.756 1082.1 329.06 1086.17 335.955C1090.22 342.85 1096.17 348.291 1104.04 352.278C1111.91 356.265 1120.83 358.253 1130.83 358.253C1140.05 358.253 1148.63 356.447 1156.59 352.846C1156.84 352.732 1157.06 352.607 1157.3 352.494L1173.97 366.851L1185.47 356.946ZM1130.83 344.122C1123.76 344.122 1117.72 342.805 1112.39 340.101C1107.24 337.489 1103.47 334.047 1100.83 329.571C1097.93 324.641 1096.51 319.564 1096.51 314.066C1096.51 303.287 1099.6 295.369 1105.96 289.838C1112.35 284.272 1120.27 281.682 1130.91 281.682C1137.86 281.682 1143.87 282.965 1149.26 285.623C1154.35 288.122 1158.11 291.507 1160.78 295.983C1163.71 300.913 1165.14 306.501 1165.14 313.055C1165.14 319.609 1163.65 325.278 1160.57 330.264C1159.86 331.411 1159.07 332.479 1158.23 333.479L1142.35 319.803L1130.84 329.708L1145 341.896C1140.55 343.384 1135.89 344.122 1130.84 344.122H1130.83Z" fill="#FFFEFE"/>
<path d="M360.32 236.325C364.963 236.121 369.62 235.826 374.263 236.132C415.7 236.166 457.15 236.132 498.587 236.144C517.213 236.223 536.495 239.699 551.907 249.184C564.893 257.044 574.075 269.017 578.876 281.989C581.841 289.917 583.454 298.232 583.716 306.558C583.677 342.089 583.729 377.631 583.69 413.162C613.623 438.163 643.622 463.119 673.568 488.109C674.565 488.961 675.916 490.062 675.523 491.403C674.801 492.607 672.991 492.72 671.614 492.857C572.501 492.834 473.389 492.857 374.289 492.857C356.883 492.936 339.031 490.699 323.421 483.69C314.344 479.635 306.238 473.899 300.021 466.879C289.606 455.19 284.385 440.526 283.244 425.93C282.837 422.34 283.047 418.728 283.113 415.127C283.113 375.348 283.113 335.569 283.113 295.79C283.454 283.59 287.481 271.186 296.23 261.463C304.966 251.569 317.834 244.992 331.331 241.153C340.71 238.472 350.495 236.996 360.32 236.325ZM342.887 269.323C336.315 271.175 330.269 274.764 326.504 279.842C322.647 285.021 320.85 291.292 321.073 297.425C321.073 314.736 321.073 332.048 321.073 349.359C338.519 349.359 355.965 349.37 373.424 349.359V324.562C373.371 320.473 375.47 316.293 379.366 313.896C383.288 311.442 388.298 310.795 393.047 310.897C400.996 310.897 408.945 310.897 416.894 310.897C416.933 296.437 416.88 281.977 416.92 267.517C398.858 267.472 380.795 267.517 362.746 267.494C356.083 266.938 349.262 267.529 342.887 269.323ZM452.192 267.483C452.113 281.954 452.165 296.426 452.165 310.897C460.586 310.909 469.021 310.897 477.442 310.897C481.941 310.92 486.676 311.783 490.257 314.271C493.812 316.702 495.688 320.677 495.635 324.551C495.635 332.82 495.543 341.089 495.583 349.359C513.055 349.381 530.527 349.359 547.985 349.359V296.596C548.104 292.405 547.33 288.179 545.624 284.249C543.263 278.694 538.397 274.026 532.337 271.322C524.388 267.744 515.14 266.824 506.313 267.494C488.277 267.483 470.241 267.529 452.205 267.472L452.192 267.483ZM321.087 379.494C321.073 397.771 321.087 416.036 321.087 434.313C321.231 438.652 322.215 443.048 324.628 446.898C327.501 451.612 332.407 455.247 337.955 457.474C345.943 460.711 354.942 461.699 363.678 461.358C381.425 461.37 399.172 461.358 416.907 461.358C416.907 446.898 416.92 432.427 416.907 417.967C408.472 417.967 400.051 417.967 391.63 417.967C387.131 417.956 382.396 417.081 378.815 414.593C375.26 412.151 373.397 408.176 373.45 404.291V379.494C356.004 379.494 338.558 379.494 321.1 379.494H321.087ZM495.517 381.277C495.465 389.081 495.504 396.885 495.504 404.677C495.648 408.005 494.665 411.515 492.002 414.014C489.024 416.729 484.578 417.91 480.341 417.865C470.608 417.831 460.875 417.91 451.142 417.819C450.919 419.705 451.09 421.59 451.037 423.487C451.024 435.903 451.077 448.307 451.011 460.722C455.143 460.859 459.288 460.745 463.42 460.779C504.804 460.756 546.188 460.824 587.573 460.745C569.786 445.274 551.881 429.917 534.081 414.457C521.174 403.45 508.542 392.182 495.53 381.277H495.517Z" fill="white"/>
<path d="M495.517 381.277C508.542 392.182 521.161 403.45 534.068 414.457C551.868 429.917 569.773 445.274 587.56 460.745C546.175 460.824 504.791 460.756 463.407 460.779C459.262 460.745 455.13 460.859 450.998 460.722C451.064 448.307 450.998 435.903 451.024 423.487C451.077 421.59 450.906 419.694 451.129 417.819C460.862 417.91 470.595 417.819 480.328 417.865C484.564 417.91 489.024 416.729 491.989 414.014C494.651 411.515 495.635 408.005 495.491 404.677C495.491 396.873 495.452 389.07 495.504 381.277H495.517Z" fill="#54A69A"/>
</svg>
